<svg width="512" height="512" viewBox="0 0 512 512" xmlns="http://www.w3.org/2000/svg">
  <rect width="512" height="512" rx="120" ry="120" fill="#FF0000"/>
  <path d="M407.8 154.8c-4.8-17.8-18.9-31.8-36.7-36.6C339.4 109 256 109 256 109s-83.4 0-115.1 9.2c-17.8 4.8-31.9 18.8-36.7 36.6C95 186.4 95 256 95 256s0 69.6 9.2 101.2c4.8 17.8 18.9 31.8 36.7 36.6C172.6 403 256 403 256 403s83.4 0 115.1-9.2c17.8-4.8 31.9-18.8 36.7-36.6C417 325.6 417 256 417 256s0-69.6-9.2-101.2zM218.9 324.4V187.6L329.1 256l-110.2 68.4z" fill="white"/>
</svg>